<mxfile host="65bd71144e">
    <diagram id="KnNdulY3mxk1esl7-zDj" name="Page-1">
        <mxGraphModel dx="2817" dy="1057" grid="1" gridSize="10" guides="1" tooltips="1" connect="1" arrows="1" fold="1" page="1" pageScale="1" pageWidth="850" pageHeight="1100" math="0" shadow="0">
            <root>
                <mxCell id="0"/>
                <mxCell id="1" parent="0"/>
                <mxCell id="4" value="" style="shape=singleArrow;whiteSpace=wrap;html=1;fillColor=#00FF00;strokeColor=#00FF00;arrowWidth=0.37263088884024287;arrowSize=0.546631238213896;" parent="1" vertex="1">
                    <mxGeometry x="326" y="372" width="50" height="40" as="geometry"/>
                </mxCell>
                <mxCell id="6" value="" style="shape=image;verticalLabelPosition=bottom;labelBackgroundColor=#ffffff;verticalAlign=top;aspect=fixed;imageAspect=0;image=data:image/png,iVBORw0KGgoAAAANSUhEUgAABJwAAAJsCAIAAAA3Di6oAAAgAElEQVR4AezBW9WyObpA0fUI4SIW8BEBGImIGEFAfGAhFwjJHt1j16hO1R+O3wF415wx0IcLJEkvaiDpJwTSJ4uBPlwgSXpRA0m6LpAuiYE+XCBJelEDSfp8gb5XDPThAknSKxpIkl5d8AZioM8XSJJezkCStHXBF4jBpPWK3lNOhYVAkvRaBpe0XvkGORUkSa8neEoMJq1X9J5yKiwEkqTXMrik9Yr+JaeCJH2o4HExmLRe0XvKqbAQSJJeyOCS1iv6RDkVJGkheFwMJq1X9J5yKiwEkqQXMrik9Yr0YnIqSPpmwYNiMGm9oveUU2EhkCS9kMElrVckfamcCtLLCx4Ug0nrFb2nnAoLgSTpVQwuab0iSf8jp4K2IXhQDCatV/SeciqsBZKklzC4pPWKJH2QnAq6TfCgGExar+g95VRYCyRJv29wSesVSdIryanwU4IHxWDSekVvK6fCQiBJ+n2DS1qvSJI+Wk6FheBBMZi0XtHbyqmwEEiSftngktYrkqRPl1NhIXhQDCatV/S2ciosBJKkXza4pPWKJOnT5VRYCB4Ug0nrFb2tnAoLgSTpNw2uaL0iSfp0ORUWggfFYNJ6RW8rp8JCIEn6TYNLWq9IkjYgp8JC8KAYTFqv6G3lVFgIJEm/aXBJ6xVJ0gbkVFgIHhSDSesVva2cCmuBJOl3DC5pvSJJ2oacCgvBg2Iwab2it5VTYS2QJP2OwSWtVyRJ25BTYSF4UAwmrVf0znIqLASSpF8wuKT1iiRpS3IqLASPiMGk9YreWU6FhUCS9AsGl7RekSRtSU6FheARMZi0XtE7y6mwEEiSftrgktYrkqSNyamwEDwiBpPWK3pnORUWAknSTxtc0npFkrQxORUWgkfEYNJ6Re8sp8JCIEn6UYMrWq9IkjYmp8JC8IgYTFqv6J3lVFgIJEk/anBJ6xVJ0vbkVFgIHhGDSesVvbOcCmuBJOnnDC5pvSJJ2p6cCgvBI2Iwab2iN5dTYSGQJP2QwSWtVyRJm5RTYSF4RAwmrVf05nIqLASSpB8yuKT1iiRpk3IqLASPiMGk9YreXE6FhUCS9BMGl7RekSRtVU6FheARMZi0XtGby6mwEEiSfsLgktYrkqStyqmwEDwiBpPWK3pzORUWAknStxtc0npFkrRhORUWgkfEYNJ6RW8up8JCIEn6doNLWq9IkrYqp8Ja8IgYTFqv6M3lVFgIJEnfbnBJ6xVJ0lblVFgIHhSDSesVvbmcCmuBJOkbDS5pvSJJ2qqcCmvBg2Iwab2i95dTYSGQJH2jwSWtVyRJm5RT4aLgQTGYtF7R+8upsBBIkr7L4JLWK5KkrcqpsBY8LgaT1it6fzkVFgJJ0ncZXNJ6RZK0STkV1oKnxGDSekXvL6fCQiBJ+haDS1qvSJI2KafCRcFTYjBpvaL3l1NhIZAkfYvBJa1XJEmblFNhLXhWDCatV/T+ciosBJKkrze4ovWKJGl7ciqsBV8gBpPWK3p/ORUWAknS1xtc0npFkrQ9ORUuCr5ADCatV/T+ciqsBZKkLza4pPWKJGl7ciqsBV8jBpPWK/oIORUWAknSVxpc0npFkrQ9ORXWgi8Tg0nrFX2EnAoLgSTpKw0uab0iSdqYnAoXBV8mBpPWK/oIORUWAknSlxlc0npFkrQ9ORXWgq8Ug0nrFX2EnAoLgSTpywwuab0iSdqYnAprwReLwaT1ij5CToWFQJL0NQaXtF6RJG1MToWLgi8Wg0nrFX2EnAoLgSTpawwuab0iSdqYnAprwdeLwaT1ij5CToW1QJL0rMEVrVckSVuSU2Et+BYxmLRe0UfIqbAWSJKeNbik9YokaUtyKlwUfIsYTFqv6FPkVFgIJEnPGlzSekWStCU5FdaC7xKDSesVfYqcCguBJOkpg0tar0iStiSnwlrwjWIwab2iT5FTYSGQJD1lcEnrFUnSZuRUuCj4RjGYtF7Rp8ipsBBIkh43uKT1iiRpS3IqrAXfKwaT1iv6FDkVFgJJ0uMGl7RekSRtRk6FteDbxWDSekWfIqfCQiBJetDgktYrkqTNyKlwUfDtYjBpvaJPkVNhLZAkPWJwSesVSdJm5FRYC35CDCatV/QpciqsBZKkRwwuab0iSdqGnAprwQ+JwaT1ij5IToWFQJJ0t8ElrVckSduQU+Gi4IfEYNJ6RR8kp8JCIEm62+CS1iuSpA3IqXBR8HNiMGm9og+SU2EhkCTdZ3BJ6xVJ0jbkVFgLflQMJq1X9EFyKiwEkqT7DC5pvSJJ2oCcCmvBT4vBpPWKPkhOhYVAknSHwSWtVyRJG5BT4aLgp8Vg0npFHySnwkIgSbrV4IrWK5KkDcipsBb8ghhMWq/og+RUWAskSVcMbtJ6RZL06XIqrAW/IwaT1iv6LDkVFgJJ0iWDm7RekSR9upwKFwW/IwaT1iv6LDkVFgJJ0tLgVq1XJEmfLqfCWvBrYjBpvaLPklNhIZAk/dngVq1XJEmfLqfCWvCbYjBpvaLPklNhLZAk/dPgVq1XJEmfLqfCRcFvisGk9Yo+S06FtUCSNBncqvWKJGkDciqsBb8sBpPWK/o4ORXWAknS/xvcqvWKJGkDciqsBb8vBpPWK/pEORXWAknausEdWq9IkjYgp8JFwe+LwaT1ij5RToWLAknarsGtWq9IkjYjp8Ja8BJiMGm9og+VU+GiQJK2aHCr1iuSpM3IqbAWvIoYTFqv6HPlVFgLJGlzBrdqvSJJ2oycChcFryIGk9Yr+mg5FdYCSdqQwa1ar0iStiSnwlrwQmIwab2iT5dTYS2QpE0Y3Kr1iiRpS3IqrAWvJQaT1iv6dDkVLgok6cMNbtV6RZK0JTkVLgpeSwwmrVe0ATkV1gJJ+liDW7VekSRtT06FteDlxGDSekXbkFNhLZCkDzS4VesVSdL25FRYC15RDCatV7QZORXWAkn6KINbtV6RJG1PToWLglcUg0nrFW1GToWLAkn6EINbtV6RJG1SToW14EXFYNJ6RVuSU+GiQJLe3uBWrVckSZuUU2EteF0xmLRe0cbkVFgLJOm9DW7VekWStEk5FS4KXlcMJq1XtD05FdYCSXpXg1u1XpEkbVVOhbXgpcVg0npFm5RTYS2QpDczuFXrFUnShuVUWAteXQwmrVe0STkVLgok6W0MbtV6RZK0YTkVLgpeXQwmrVe0VTkV1gJJeg+DW7VekSRtW06FteANxGDSekUbllNhLZCkVze4VesVSdK25VRYC95DDCatV7RtORXWAkl6XYNbtV6RJG1bToWLgvcQg0nrFW1bToWLAkl6RYNbtV6RJG1eToW14G3EYNJ6RZuXU+GiQJJey+BWrVckSZuXU2EteCcxmLRekSCnwlogSa9icKvWK5IkQU6Fi4J3EoNJ6xXpv3IqrAWS9PsGt2q9IknSf+VUWAveTAwmrVekv+RUWAsk6TcNbtV6RZKk/8qpsBa8nxhMWq9If8mpcFEgSb9jcKvWK5Ik/VdOhYuC9xODSesV6X/kVFgLJOkXDG7VekWSpL/kVFgL3lIMJq1XpFlOhbVAkn7U4FatVyRJ+ktOhbXgXcVg0npF+pecCmuBJP2Qwa1ar0iS9JecChcF7yoGk9Yr0r/kVLgokKTvNbhV6xVJkmY5FdaCNxaDSesV6U9yKlwUSNJ3Gdyq9YokSbOcCmvBe4vBpPWKtJBTYS2QpG8xuFXrFUmSZjkVLgreWwwmrVektZwKa4EkfbHBrVqvSJL0LzkV1oK3F4NJ6xXpopwKa4EkfZnBrVqvSJL0LzkV1oJPEINJ6xXpopwKFwWS9AUGt2q9IknSv+RUuCj4BDGYtF6RrsmpsBZI0rMGt2q9IknSn+RUWAs+RAwmrVekG+RUWAsk6UGDW7VekSRpIafCWvA5YjBpvSLdJqfCWiBJdxvcqvWKJEkLORUuCj5HDCatV6Tb5FS4KJCkOwxu1XpFkqS1nAprwUeJwaT1inSznAoXBZJ0k8GtWq9IkrSWU2Et+DQxmLReke6RU2EtkKTrBrdqvSJJ0lpOhYuCTxODSesV6U45FdYCSbpkcKvWK5IkXZRTYS34QDGYtF6R7pdTYS2QpD8Y3KH1iiRJF+VUWAs+UwwmrVek++VUuCiQpMngVq1XJEm6JqfCRcFnisGk9Yr0kJwKa4Ek/W1wq9YrkiTdIKfCWvCxYjBpvSI9KqfCWiBJ/zG4VesVSZJukFNhLfhkMZi0XpGekFNhLZC0aYM7tF6RJOkGORXWgg8Xg0nrFekJORUuCiRt0eA+rVckSbpBToWLgg8Xg0nrFek5ORUuCiRtyOBurVckSbpNToW14PPFYNJ6RXpaToVrAkkfbvCI1iuSJN0mp8JasAkxmLRekb5CToUbBJI+zeBBrVckSbpZToWLgk2IwaT1ivRFcircJpD0CQaPa70iSdI9ciqsBVsRg0nrFemL5FS4RyDpXQ2e0npFkqR75FRYCzYkBpPWK9LXyalwj0DSmxk8q/WKJEn3yKlwUbAhMZi0XpG+VE6FOwWS3sDgWa1XJEm6X06FtWBbYjBpvSJ9tZwK9wskvajBU1qvSJL0qJwKa8HmxGDSekX6ajkVHhVIehWDZ7VekSTpCTkVLgo2JwaT1ivS98ip8KhA0m8aPKv1iiRJT8upsBZsUQwmrVek75RT4VGBpJ82eFbrFUmSvkJOhbVgo2Iwab0ifb+cCo8KJP2EwbNar0iS9EVyKlwUbFQMJq1XpJ+SU+FRgaTvMnhW6xVJkr5UToW1YLtiMGm9Iv2snAqPCiR9pcFTWq9IkvQNciqsBZsWg0nrFek35FR4VCDpKYNntV6RJOl75FS4KNi0GExar0i/J6fCowJJdxs8q/WKJEnfKafCWrB1MZi0XpF+W06FRwWSbjJ4VusVSZK+WU6FtUDEYNJ6RXoBORWeEEhaGjyr9YokSd8vp8JFgYjBpPWK9DJyKjwqkPRPg2e1XpEk6afkVFgL9B8xmLRekV5MToVHBZL+Y/Cs1iuSJP2InArXBPp/MZi0XpFeUk6FRwXSRg2e1XpFkqRvkFPhCYH+XwwmrVekF5ZT4VGBtCGDZ7VekSTpaTkVvlqgv8Vg0npFenk5FR4VSB9u8KzWK5Ik3SOnwk8JNInBpPWK9CZyKjwqkD7Q4FmtVyRJWsip8AICTWIwab0ivZWcCo8KpA8xeFbrFUmSIKfCCwv0TzGYtF6R3lBOhUcF0hsbPKv1iiRpY3IqvKFAfxCDSesV6W3lVHhUIL2ZwVNar0iSPlpOhQ8S6M9iMGm9Ir25nAqPCqRXN3hW6xVJ0gfJqfDRAl0Sg0nrFekj5FR4VCC9osGzWq9Ikt5TToXNCHSHGExar0ifIqfCEwLpVQye1XpFkvTycipsRqCvEYNJ6xXps+RUeFQg/bLBs1qvSJJeSU6FzQj07WIwab0ifaKcCo8KpF8weFbrFUnSL8mpsBmBflMMJq1XpM+VU+FRgfRDBk9pvSJJ+kE5ldZrToWPFuhFxWDSekX6dDkVHhVI32XwrNYrkqQflFPh4wR6MzGYtF6RtiGnwqMC6WsMvkbrFUnSD8qp8M4CfY4YTFqvSFuSU+FRgXSrwXdpvSJJ+lk5Fd5BoE2IwaT1irQ9ORUeFUh/G/yc1iuSpJ+VU+HFBNq6GExar0hblVPhUYG2ZfCbWq9Ikn5WToXfE0hLMZi0XpG2LafCcwJ9jsELab0iSfpxORV+RCA9IgaT1iuSIKfClwr00gYvrfWKJOnH5VT4BoH0lWIwab0i6S85Fb5ToF8weCetVyRJvyGnwhMC6YfEYNJ6RdIsp8IPCvQ1Bu+t9Yok6TfkVHhIIP2CGExar0j6l5wKvyrQ0uDTtF6RJP2GnAoPCaRfE4NJ6xVJCzkVXkmwLYPP1HpFkvTbcio8JJB+WQwmrVckXZRT4YUFb2/wmVqvSJJeT06FRwXS74vBpPWKpBvkVHgfwSsafKzWK5Kkl5dT4VGB9CpiMGm9IulmORXeVvBDBh+r9Yok6T3lVHhIIL2WGExar0h6VE6FNxc8ZfCZWq9Ikj5FToWHBNIrisGk9YqkL5VT4c0F/zT4TK1XJEmfK6fCQwLpdcVg0npF0vfLqaDf03pFkrQlORUeFUgvLQaT1iuSfklOBX2p1iuSpG3LqfCoQHoDMZi0XpH0SnIq6JrWK5Ik/UtOhYcE0tuIwaT1iqSXl1Nhq1qvSJJ0TU6FhwTSm4nBpPWKpPeUU+GDtF6RJOl+ORUeEkhvKQaT1iuSPkhOhdfWekWSpK+QU+FRgfSuYjBpvSLp0+VU+HGtVyRJ+h45FR4VSO8tBpPWK5I2KafCV2i9IknSD8qp8JBA+gQxmLRekaS/5FRYaL0iSdKvyqnwkED6HDGYtF6RJEmSXltOhYcE0qeJwaT1iiRJkvSqcio8JJA+UwwmrVckSZKk15NT4VGB9LFiMGm9IkmSJL2SnAqPCqQPF4NJ6xVJkiTpZeRUeEggbUIMJq1XJEmSpBeQU+EhgbQhMZi0XpEkSZJ+VU6FhwTS5sRg0npFkiRJ+iU5FR4VSFsUg0nrFUmSJOnH5VR4VCBtVwwmrVckSZKkn5VT4SGBtHUxmLRekSRJkn5KToWHBJL+IwaT1iuSJEnS98up8JBA0t9iMGm9IkmSJH2nnAqPCiRNYjBpvSJJkiR9j5wKjwok/UEMJq1XJEmSpG+QU+EhgaSlGExar0iSJElfKqfCQwJJV8Rg0npFkiRJ+iI5FR4SSLpJDCatVyRJkqSn5VR4SCDpDjGYtF6RJEmSnpNT4SGBpPvEYNJ6RZIkSXpCToX7BZIeEYNJ6xVJkiTpUTkV7hRIelwMJq1XJEmSpIfkVLhHIOlZMZi0XpEkSZIeklPhNoGkrxGDSesVSZIk6X45FW4TSPoyMZi0XpEkSZLulFPhBoGkLxaDSesVSZIk6R45Fa4JJH2LGExar0iSJEk3y6lwTSDpu8Rg0npFkiRJullOhWsCSd8lBpPWK5IkSdJtcipcE0j6RjGYtF6RJEmSbpBT4ZpA0veKwaT1iiRJknRNToVrAknfLgaT1iuSJEnSRTkVrgkk/YQYTFqvSJIkSWs5Fa4JJP2QGExar0iSJElrORWuCST9kBhMWq9IkiRJCzkVrgkk/ZwYTFqvSJIkSX+SU+GaQNKPisGk9YokSZL0LzkVrgkk/bQYTFqvSJIkSbOcCtcEkn5BDCatVyRJkqT/kVPhBoGkXxCDSesVSZIk6X/kVLgmkPQ7YjBpvSJJkiT9JafCNYGkXxODSesVSZIk6b9yKlwTSPpNMZi0XpEkSZIgp8I1gaRfFoNJ6xVJkiRtXk6FawJJvy8Gk9YrkiRJ2rycCtcEkn5fDCatVyRJkrRtORWuCSS9hBhMWq9IkiRpw3IqXBNIehUxmLRekSRJ0lblVLgmkPRCYjBpvSJJkqRNyqlwTSDptcRg0npFkiRJ25NT4ZpA0suJwaT1iiRJkrYnp8I1gaSXE4NJ6xVJkiRtTE6FawJJrygGk9YrkiRJ2pKcCtcEkl5UDCatVyRJkrQZORWuCSS9rhhMWq9IkiRpG3IqXBNIemkxmLRekSRJ0gbkVLhBIOmlxWDSekWSJEkbkFPhmkDSq4vBpPWKJEmSPl1OhWsCSW8gBpPWK5IkSfpoORWuCSS9hxhMWq9IkiTpc+VUuCaQ9DZiMGm9IkmSpA+VU+GaQNI7icGk9YokSZI+VE6FawJJ7yQGk9YrkiRJ+kQ5Fa4JJL2ZGExar0iSJOnj5FS4JpD0fmIwab0iSZKkz5JT4ZpA0luKwaT1iiRJkj5IToVrAknvKgaT1iuSJEn6FDkVbhBIelcxmLRekSRJ0qfIqXBNIOmNxWDSekWSJEkfIafCNYGk9xaDSesVSZIkvb+cCtcEkt5eDCatVyRJkvTmcipcE0j6BDGYtF6RJEnSO8upcE0g6UPEYNJ6RZIkSW8rp8INAkkfIgaT1iuSJEl6WzkVrgkkfY4YTFqvSJIk6T3lVLgmkPRRYjBpvSJJkqQ3lFPhmkDSp4nBpPWKJEmS3k1OhWsCSR8oBpPWK5IkSXorORWuCSR9phhMWq9IkiTpreRUuCaQ9JliMGm9IkmSpPeRU+GaQNLHisGk9YokSZLeRE6FawJJnywGk9YrkiRJegc5Fa4JJH24GExar0iSJOnl5VS4JpD0+WIwab0iSZKk15ZT4QaBpM8Xg0nrFUmSJL22nArXBJI2IQaT1iuSJEl6YTkVrgkkbUUMJq1XJEmS9KpyKlwTSNqQGExar0iSJOlV5VS4KJC0LTGYtF6RJEnSS8qpcFEgaXNiMGm9IkmSpJeUU+GiQNLmxGDSekWSJEkvKafCWiBpi2Iwab0iSZKk15NTYS2QtFExmLRekSRJ0uvJqbAQSNquGExar0iSJOn15FRYCCRtVwwmrVckSZL0YnIqrAWStisGk9YrkiRJejE5FRYCSZsWg0nrFUmSJL2YnAoLgaRNi8Gk9YokSZJeTE6FhUDSpsVg0npFkiRJrySnwlogadNiMGm9IkmSpFeSU2EhkLR1MZi0XpEkSdIryamwEEjauhhMWq9IkiTpleRUWAgkbV0MJq1XJEmS9DJyKqwFkrYuBpPWK5IkSXoZORUWAkkiBpPWK5IkSXoZORUWAkkiBpPWK5IkSXoNORXWAkkiBpPWK5IkSXoNORUWAkn6jxhMWq9IkiTpNeRUWAgk6T9iMGm9IkmSpNeQU2EhkKT/iMGk9YokSZJeQE6FtUCS/iMGk9YrkiRJegE5FRYCSfp/MZi0XpEkSdILyKmwEEjS/4vBpPWKJEmSXkBOhYVAkv5fDCatVyRJkvTbciqsBZL0/2Iwab0iSZKk35ZTYSGQpL/FYNJ6RZIkSb8tp8JCIEl/i8Gk9YokSZJ+VU6FtUCS/haDSesVSZIk/aqcCguBJE1iMGm9IkmSpF+VU2EhkKRJDCatVyRJkvSrciosBJI0icGk9YokSZJ+T06FtUCSJjGYtF6RJEnS78mpsBBI0j/FYNJ6RZIkSb8np8JCIEn/FINJ6xVJkiT9npwKC4Ek/VMMJq1XJEmS9EtyKiwEkvQHMZi0XpEkSdIvyamwEEjSH8Rg0npFkiRJvySnwkIgSX8Qg0nrFUmSJP2GnAprgST9QQwmrVckSZL0G3IqLASS9GcxmLRekSRJ0m/IqbAQSNKfxWDSekWSJEm/IafCQiBJfxaDSesVSZIk/bicCmuBJP1ZDCatVyRJkvTjciosBJK0FINJ6xVJkiT9uJwKC4EkLcVg0npFkiRJPyunwlogSUsxmLRekSRJ0s/KqbAQSNIlMZi0XpEkSdLPyqmwEEjSJTGYtF6RJEnSz8qpsBBI0iUxmLRekSRJ0g/KqbAWSNIlMZi0XpEkSdIPyqmwEEjSFTGYtF6RJEnSD8qpsBBI0hUxmLRekSRJ0g/KqbAQSNIVMZi0XpEkSdJPyamwFkjSFTGYtF6RJEnST8mpsBBI0nUxmLRekSRJ0k/JqbAQSNJ1MZi0XpEkSdKPyKmwFkjSdTGYtF6RJEnSj8ipsBBI0k1iMGm9IkmSpB+RU2EhkKSbxGDSekWSJEk/IqfCQiBJN4nBpPWKJEmSvl9OhbVAkm4Sg0nrFUmSJH2/nAoLgSTdKgaT1iuSJEn6fjkVFgJJulUMJq1XJEmS9P1yKiwEknSrGExar0iSJOmb5VRYCyTpVjGYtF6RJEnSc3IqPCqQpDvEYNJ6RZIkaRtyKryeQJLuEINJ6xVJkqQXk1NhMwJJukMMJq1XJEmSHpJTQc8JJOk+MZi0XpEkSZ8up4JeUiBJ94nBpPWKJEl6DTkVtDGBJN0nBpPWK5Ik6U45FaSnBZJ0txhMWq9IkvShcipILyyQpLvFYNJ6RZKk35ZTQdqeQJLuFoNJ6xVJkm6TU0HSlwok6T4xmLRekSR9nJwKkv7leDrzGw77HQuBJN0nBpPWK5KkX5JTQdKfHE9nPshhv2MhkKT7xGDSekWS9HVyKkibcTyd0Q0O+x0LgSTdJwaT1iuSpK+QU0F6VcfTGf2ew37HQiBJ94nBpPWKJOlpORWkpx1PZ/SJDvsdC4Ek3ScGk9YrkqSn5VTQlhxPZ6SbHfY7FgJJuk8MJq1XJEnPyamgl3Q8nZFewGG/Yy2QpDvEYNJ6RZL0nJwKes7xdEb6aIf9joVAku4Qg0nrFUnSc3IqbMPxdEbSQw77HQuBJN0hBpPWK5Kk5+RUeDHH0xlJr+Sw37EQSNIdYjBpvSJJek5OhYccT2ckbcNhv2MhkKQ7xGDSekWS9JycChcdT2ckbdthv2MhkKQ7xGDSekWS9IScCtccT2ckbdthv2MhkKQ7xGDSekWS9IScCtccT2ckbdthv2MhkKQ7xGDSekWS9IScCtccT2ckbdthv2MtkKRbxWDSekWS9IScCtccT2ckbd5hv2MhkKRbxWDSekWS9IScChcdT2ckCQ77HQuBJN0qBpPWK5KkJ+RUuOh4OiNJcNjvWAgk6VYxmLRekSQ9IafCRcfTGUmCw37HQiBJt4rBpPWKJOkJORUuOp7OSBIc9jsWAkm6VQwmrVckSU/IqXDR8XRGkuCw37EQSNKtYjBpvSJJekJOhYuOpzOSBIf9jrVAkm4Sg0nrFUnSE3IqXHQ8nZGk/zrsdywEknSTGExar0iSHpVT4Zrj6Ywk/ddhv2MhkKSbxGDSekWS9KicCtccT2ck6b8O+x0LgSTdJAaT1iuSpEflVLjmeDojSf912O9YCCTpJjGYtF6RJD0qp8I1x9MZSfqvw37HQiBJN4nBpPWKJOlRORUuOp7OSNJfDvsdC4Ek3SQGk9YrkqRH5VS46Hg6I0l/Oex3LASSdJMYTFqvSJIelVPhouPpjCT95bDfsRZI0nUxmLRekSQ9KqfCRcfTGUn6H4f9joVAkq6LwaT1iiTpUTkVLjqezkjS/zjsdywEknRdDCatVyRJj8qpcNHxdEaS/sdhvy5z2jIAABf7SURBVGMhkKTrYjBpvSJJelROhYuOpzOS9D8O+x0LgSRdF4NJ6xVJ0kNyKlxzPJ2RpP9x2O9YCCTpuhhMWq9Ikh6SU+Ga4+mMJP2Pw37HQiBJ18Vg0npFkvSQnArXHE9nJOl/HPY71gJJuiIGk9YrkqSH5FS45ng6I0mzw37HQiBJV8Rg0npFkvSQnAoXHU9nJOlfDvsdC4EkXRGDSesVSdJDcipcdDydkaR/Oex3LASSdEUMJq1XJEkPyalw0fF0RpL+5bDfsRBI0hUxmLRekSQ9JKfCRcfTGUn6l8N+x0IgSVfEYNJ6RZL0kJwKFx1PZyTpXw77HQuBJF0Rg0nrFUnSQ3IqXHQ8nZGkfznsdywEknRFDCatVyRJ98upcM3xdEaS/uWw37EWSNIlMZi0XpEk3S+nwjXH0xlJ+pPDfsdCIEmXxGDSekWSdL+cCtccT2ck6U8O+x0LgSRdEoNJ6xVJ0v1yKlxzPJ2RpD857HcsBJJ0SQwmrVckSffLqXDN8XRGkv7ksN+xEEjSJTGYtF6RJN0vp8I1x9MZSfqTw37HQiBJl8Rg0npFknS/nAoXHU9nJGnhsN+xEEjSJTGYtF6RJN0vp8JFx9MZSVo47HesBZK0FINJ6xVJ0v1yKlx0PJ2RpLXDfsdCIElLMZi0XpEk3S+nwkXH0xlJWjvsdywEkrQUg0nrFUnS/XIqXHQ8nZGktcN+x0IgSUsxmLRekSTdKafCNcfTGUlaO+x3LASStBSDSesVSdKdcipcczydkaS1w37HQiBJSzGYtF6RJN0pp8I1x9MZSVo77HcsBJK0FINJ6xVJ0p1yKlxzPJ2RpLXDfsdCIElLMZi0XpEk3SmnwjXH0xlJWjvsd6wFkvRnMZi0XpEk3SmnwjXH0xlJuuiw37EQSNKfxWDSekWSdKecChcdT2ck6ZrDfsdCIEl/FoNJ6xVJ0p1yKlx0PJ2RpGsO+x0LgST9WQwmrVckSXfKqXDR8XRGkq457HcsBJL0ZzGYtF6RJN0pp8JFx9MZSbrmsN+xEEjSn8Vg0npFknSnnAoXHU9nJOmaw37HQiBJfxaDSesVSdI9cipcczydkaRrDvsda4Ek/UEMJq1XJEn3yKlwzfF0RpJucNjvWAgk6Q9iMGm9Ikm6R06Fa46nM5J0g8N+x0IgSX8Qg0nrFUnSPXIqXHM8nZGkGxz2OxYCSfqDGExar0iS7pFT4Zrj6Ywk3eCw37EQSNIfxGDSekWSdI+cCtccT2ck6QaH/Y6FQJL+IAaT1iuSpHvkVLjoeDojSbc57HcsBJL0BzGYtF6RJN0jp8JFx9MZSbrNYb9jIZCkP4jBpPWKJOkeORUuOp7OSNJtDvsda4Ek/VMMJq1XJEn3yKlw0fF0RpJudtjvWAgk6Z9iMGm9Ikm6R06Fi46nM5J0s8N+x0IgSf8Ug0nrFUnSzXIqXHM8nZGkmx32OxYCSfqnGExar0iSbpZT4Zrj6Ywk3eyw37EQSNI/xWDSekWSdLOcCtccT2ck6WaH/Y6FQJL+KQaT1iuSpJvlVLjmeDojSTc77HcsBJL0TzGYtF6RJN0sp8I1x9MZSbrZYb9jLZCkSQwmrVckSTfLqXDN8XRGku5x2O9YCCRpEoNJ6xVJ0s1yKlx0PJ2RpDsd9jsWAkmaxGDSekWSdLOcChcdT2ck6U6H/Y6FQJImMZi0XpEk3SynwkXH0xlJutNhv2MhkKRJDCatVyRJN8upcNHxdEaS7nTY71gIJGkSg0nrFUnSzXIqXHQ8nZGkOx32OxYCSZrEYNJ6RZJ0m5wK1xxPZyTpTof9joVAkiYxmLRekSTdJqfCNcfTGUm602G/Yy2QpL/FYNJ6RZJ0m5wK1xxPZyTpfof9joVAkv4Wg0nrFUnSbXIqXHM8nZGk+x32OxYCSfpbDCatVyRJt8mpcM3xdEaS7nfY71gIJOlvMZi0XpEk3SanwjXH0xlJut9hv2MhkKS/xWDSekWSdJucChcdT2ck6SGH/Y6FQJL+FoNJ6xVJ0m1yKlx0PJ2RpIcc9jsWAkn6WwwmrVckSbfJqXDR8XRGkh5y2P9fe3B03FirblF0fYHwQArkQQA7EYIgEQIgD1LggUA41V2/65pro61uS5bcmmM47ZkA4D82tag9CwBwneiTLiptCAD+1hGcNkwA8B+bWtSeBQC4QvRJZ0obAoC/dQSnDRMA/MemFrVnAQCuEH3SmdKGAOBvHcFpwwQA/7GpRe1ZAIArRJ90prQhAPhbR3DaMAHAf2xqUXsWAOAK0SedKW0IAP7WEZw2TADwH5ta1J4FALhC9ElnShsCgL91BKcNEwD8x6YWtWcBAK4QfdKZ0oYA4G8dwWnDBAD/salF7VkAgCtEn3SmtCEA+FtHcNozAcAvNrWoPQsAcIXoky4qbQgAvuYIThsmAPjFpha1ZwEArhB90kWlDQHA1xzBacMEAL/Y1KL2LADAFaJPuqi0IQD4miM4bZgA4BebWtSeBQC4QvRJF5U2BABfcwSnDRMA/GJTi9qzAABnok86U9oQAHzNEZw2TADwi00tas8CAJyJPulMaUMA8DVHcNowAcAvNrWoPQsAcCb6pDOlDQHA1xzBac8EALKpRe1ZAIAz0SedKW0IAL7sCE4bJgCQTS1qzwIAnIk+6UxpQwDwZUdw2jABgGxqUXsWAOBM9ElnShsCgC87gtOGCQBkU4vaswAAZ6JPOlPaEAB82RGcNkwAIJta1J4FADgTfdKZ0oYA4MuO4LRhAgDZ1KL2LADAmeiTLiptCABu4QhOGyYAkE0tas8CAJyJPumi0oYA4BaO4LRhAgDZ1KL2LADAmeiTLiptCABu4QhOeyYAr86mFrVnAQAuij7pTGlDAHAjR3DaMAF4dTa1qD0LAHBR9ElnShsCgBs5gtOGCcCrs6lF7VkAgIuiTzpT2hAA3MgRnDZMAF6dTS1qzwIAXBR90pnShgDgRo7gtGEC8OpsalF7FgDgouiTzpQ2BAA3cgSnDROAV2dTi9qzAAAXRZ90prQhALiRIzhtmAC8Opta1J4FALgo+qQzpQ0BwI0cwWnPBOCl2dSi9iwAwEXRJ50pbQgAbucIThsmAC/Npha1ZwEALoo+6aLShgDgpo7gtGEC8NJsalF7FgDgouiTLiptCABu6ghOGyYAL82mFrVnAQAuij7potKGAOCmjuC0YQLw0mxqUXsWAGAv+qQzpQ0BwE0dwWnDBOCl2dSi9iwAwF70SWdKGwKAmzqC04YJwEuzqUXtWQCAveiTzpQ2BAA3dQSnDROAl2ZTi9qzAAB70SedKW0IAG7qCE57JgCvy6YWtWcBAPaiTzpT2hAA3NoRnDZMAF6XTS1qzwIA7EWfdKa0IQC4tSM4bZgAvC6bWtSeBQDYiz7pTGlDAHBrR3DaMAF4XTa1qD0LALAXfdKZ0oYA4NaO4LRhAvC6bGpRexYAYC/6pItKGwKAOziC04YJwOuyqUXtWQCAveiTLiptCADu4AhOGyYAr8umFrVnAQD2ok+6qLQhALiDIzjtmQC8KJta1J4FANiIPulMaUMAcB9HcNowAXhRNrWoPQsAsBF90pnShgDgPo7gtGEC8KJsalF7FgBgI/qkM6UNAcB9HMFpwwTgRdnUovYsAMBG9ElnShsCgPs4gtOGCcCLsqlF7VkAgI3ok86UNgQA93EEpw0TgBdlU4vaswAAG9EnnSltCADu4whOGyYAL8qmFrVnAQA2ok86U9oQANzHEZw2TABelE0tas8CAGxEn3SmtCEAuI8jOO2ZALwim1rUngUA2Ig+6aLShgDgno7gtGEC8IpsalF7FgBgI/qki0obAoB7OoLThgnAK7KpRe1ZAIDPRJ90prQhALinIzhtmAC8Ipta1J4FAPhM9ElnShsCgHs6gtOGCcArsqlF7VkAgM9En3SmtCEAuKcjOG2YALwim1rUngUA+Ez0SWdKGwKAezqC04YJwCuyqUXtWQCAz0SfdKa0IQC4pyM47ZkAvBybWtSeBQD4TPRJZ0obAoA7O4LThgnAy7GpRe1ZAIDPRJ90prQhALizIzhtmAC8HJta1J4FAPhM9ElnShsCgDs7gtOGCcDLsalF7VkAgM9En3SmtCEAuLMjOG2YALwcm1rUngUA+Ez0SReVNgQA93cEpw0TgJdjU4vaswAAn4k+6aLShgDg/o7gtGEC8HJsalF7FgDgg+iTzpQ2BAD3dwSnDROAl2NTi9qzAAAfRJ90prQhALi/IzjtmQC8Fpta1J4FAPgg+qQzpQ0BwLc4gtOGCcBrsalF7VkAgA+iTzpT2hAAfIsjOG2YALwWm1rUngUA+CD6pDOlDQHAtziC04YJwGuxqUXtWQCAD6JPOlPaEAB8iyM4bZgAvBabWtSeBQD4IPqkM6UNAcC3OILThgnAa7GpRe1ZAIAPok86U9oQAHyLIzhtmAC8Fpta1J4FAPgg+qQzpQ0BwLc4gtOeCcALsalF7VkAgA+iTzpT2hAAfJcjOG2YFlMyAfhn2dSi9iwAwAfRJ11U2hAAfKMjOG2Y/jO1MAH4B9nUovYsAMAq+qQzpQ0BwDc6gtOG6Zepz5kA/FNsalF7FgBgFX3SmdKGAOAbHcFpw/TL1OdMAP4pNrWoPQsAsIo+6UxpQwDwjY7gtGHS1CUmAP8Om1rUngUAWEWfdKa0IQD4Rkdw2jBp6hITgH+HTS1qzwIArKJPOlPaEAB8oyM4bZg0dcIE4B9hU4vaswAAq+iTzpQ2BADf6AhOX2AC8I+wqUXtWQCAVfRJZ0obAoDvdQSnv2UC8I+wqUXtWQCAVfRJZ0obAoDvdQSnLzAB+BfY1KL2LADAKvqkM6UNAcD3OoLTF5gA/AtsalF7FgBgFX3SmdKGAOB7HcHpa0wAfjybWtSeBQBYRZ90UWlDAPDtjuD0NSYAP55NLWrPAgC8E33SmdKGAODbHcHpy0wAfjabWtSeBQB4J/qkM6UNAcC3O4LTl5kA/Gw2tag9CwDwTvRJZ0obAoBHOILTl5kA/GA2tag9CwDwTvRJZ0obAoBHOILTl5kA/GA2tag9CwDwTvRJZ0obAoBHOILTLZgA/FQ2tag9CwDwTvRJZ0obAoBHOILTLZgA/FQ2tag9CwDwTvRJZ0obAoBHOILTjZgA/Eg2tag9CwDwTvRJZ0obAoBHOILTjZgA/Eg2tag9CwDwTvRJZ0obAoBHOILT7ZgA/Dw2tag9CwDwTvRJZ0obAoBHOILT7ZgA/Dw2tag9CwDwTvRJF5U2BACPcwSn69Seo0+6yATgh7GpRe1ZAIA30SedKW0IAB7nCE7XqT1Lij5pzwTgh7GpRe1ZAIA30SedKW0IAB7nCE7XqT1Lij7pIhOAn8SmFrVnAQDeRJ90prQhAHicIzhdp/as36JP2jMB+ElsalF7FgDgTfRJZ0obAoDHOYLTdWrP+i36pD0TgJ/Epha1ZwEA3kSfdKa0IQB4nCM4Xaf2rDfRJ+2ZAPwYNrWoPQsA8Cb6pDOlDQHA4xzB6Tq1Z72JPmnPBODHsKlF7VkAgDfRJ50pbQgAHuoITleoPeud6JP2TAB+Bpta1J4FAHgTfdKZ0oYA4KGO4HSF2rPeiT5pzwTgZ7CpRe1ZAIA30SedKW0IAB7qCE5XqD1rFX3SngnAD2BTi9qzAABvok86U9oQADzUEZyuUHvWKvqkPROAH8CmFrVnAQB+iz7pTGlDAPBoR3C6Qu1ZH0SftGcC8OxsalF7FgDgt+iTzpQ2BACPdgSnM7VnfSb6pD0TgGdnU4vaswAAv0WfdKa0IQB4tCM4nak9ayP6pD0TgKdmU4vaswAAv0WfdKa0IQB4tCM4nak9ayP6pD0TgKdmU4vaswAAv0WfdKa0IQB4Akdwuqj2rL3ok/ZMAJ6XTS1qzwIA/BZ90pnShgDgCRzB6aLas/aiT9ozAXheNrWoPQsA8Fv0SWdKGwKAJ3AEp4tqz7oo+qQ9E4AnZVOL2rMAAL9Fn3SmtCEAeAJHcLqo9qyLok/aMwF4Uja1qD0LAPBb9ElnShsCgCdwBKeLas86E33SngnAM7KpRe1ZAIDfok86U9oQADyBIzhdVHvWmeiT9kwAnpFNLWrPAgC8iT7potKGAOAJHMHpotqzzkSfdJEJwNOxqUXtWQCAN9En7ZU2BABP4whOe7VnXSH6pD0TgKdjU4vaswAAb6JP2ittCACexhGc9mrPukL0SReZADwXm1rUngUAeBN90l5pQwDwNI7gtFF71tWiT9ozAXguNrWoPQsA8Cb6pL3ShgDgaRzBaaP2rKtFn7RnAvBcbGpRexYA4E30SXulDQHA0ziC00btWX8i+qQ9E4AnYlOL2rMAAO9En7RR2hAAPI0jOG3UnvUnok/aMwF4Ija1qD0LAPBO9EkbpQ0BwNM4gtNG7Vl/KPqkPROAZ2FTi9qzAADvRJ+0UdoQADyNIzht1J71h6JP2jMBeBY2tag9CwDwTvRJG6UNAcDTOILTRu1Zfy76pD0TgKdgU4vaswAA70SftFHaEAA8jSM4bdSe9eeiT9ozAXgKNrWoPQsA8E70SRulDQHA0ziC00btWX8l+qQ9E4DHs6lF7VkAgHeiT9orbQgAnsMRnDZqz/or0SftmQA8nk0tas8CAKyiT9oobQgAnsMRnDZqz/pb0SftmQA8mE0tas8CAKyiT9oobQgAnsMRnDZqz/pb0SftmQA8mE0tas8CAKyiT9oobQgAnsARnDZqz/qa6JP2TAAeyaYWtWcBAFbRJ22UNgQAT+AIThu1Z31N9El7JgCPZFOL2rMAAKvokzZKGwKAJ3AEp43as74s+qQ9E4CHsalF7VkAgFX0SRulDQHAEziC00btWV8WfdKeCcDD2NSi9iwAwCr6pL3ShgDg0Y7gtFF71pdFn3SRCcBj2NSi9iwAwAfRJ22UNgQAj3YEp43as24h+qSLTAAewKYWtWcBAD6IPmmjtCEAeLQjOG3UnnUL0SedMQH4bja1qD0LAPBB9EkbpQ0BwKMdwWmj9qwbiT7pjAnAt7KpRe1ZAIAPok/aKG0IAB7tCE4btWfdSPRJVzAB+D42tag9CwDwQfRJG6UNAcCjHcFpo/as24k+6QomAN/Epha1ZwEAPog+aaO0IQB4tCM4bdSedVPRJ13BBOA72NSi9iwAwAfRJ+2VNgQAD3UEp43as24t+qQrmADcnU0tas8CAHwm+qSN0oYA4KGO4PSZ2rPuI/qkK5gA3JdNLWrPAgB8JvqkjdKGAOBxjuC0UXvW3USfdAUTgDuyqUXtWQCAz0SftFHaEADc1BGcbqH2rHuKPukKJgD3YlOL2rMAAJ+JPmmjtCEA/64jOP1YtWfdWfRJVzABuAubWtSeBQD4TPRJG6UNAbi/IzjhD9WedX/RJ13BBOD2bGpRexYA4DPRJ22UNgQ8vSM44fXUnvUtok+6ggnAjdnUovYsAMBnok/aK20I/6IjOAE/We1Z3yX6pDMmADdmU4vaswAAG9EnbZQ2hDdHcALwBGrP+l7RJ50xAbglm1rUngUA2Ig+aaO0oa85ghMA3FTtWd8u+qQzJgA3Y1OL2rMAABvRJwHAD1F71oNEn3TGBOA2bGpRexYAYCP6JAB4erVnPVr0SWdMAG7Apha1ZwEANqJPAoBvUXvWDxd90hkTgK+yqUXtWQCAjeiTALye2rPwV6JPOmMC8CU2tag9CwCwEX0SgMepPQs/TfRJZ0wA/p5NLWrPAgDsRZ8EQKo9C7hO9ElnTAD+kk0tas8CAOxFnwQ8mdqzgOcWfdIZE4C/YVOL2rMAAHvRJwEbtWcB2Ig+6YwJwB+zqUXtWQCAveiT8BPUngXgyUSfdMYE4M/Y1KL2LADARdEn4U/UngUAv0WfdMYE4A/Y1KL2LADAmeiTfqDaswDg0aJPOmMCcC2bWtSeBQC4TvRJf6v2LAB4VdEnnTEBuIpNLWrPAgAAAO4s+qQzJgDnbGpRexYAAABwf9EnnTEBOGFTi9qzAAAAgPuLPukKJgCX2NSi9iwAAADgW0SfdAUTgC2bWtSeBQAAAHyX6JOuYALwOZta1J4FAAAAfKPok65gAvAJm1rUngUAAAB8r+iTrmAC8P/Z1KL2LAAAAODbRZ90BROAhU0tas8CAAAAHiH6pCuYAPwfmwIAAAB+GBOA/9gUAAAA8POYAPxiUwAAAMDPYwLwi00BAAAAP48JwC82BQAAAPxIJgD6H5/HEl2byIqgAAAAAElFTkSuQmCC;" parent="1" vertex="1">
                    <mxGeometry x="383" y="292" width="380.65" height="200" as="geometry"/>
                </mxCell>
                <mxCell id="7" value="" style="shape=image;verticalLabelPosition=bottom;labelBackgroundColor=#ffffff;verticalAlign=top;aspect=fixed;imageAspect=0;image=data:image/png,iVBORw0KGgoAAAANSUhEUgAABJwAAAJsCAIAAAA3Di6oAAAgAElEQVR4AezBUZWySbKG0TeEcBEW8BECMJIiwggC0gcW4gIhedb0ml6nc/pPqqCA+oBnbxsCPoIJwPMMAQCAL5juw4aAj2AC8DxDAADgEtPd2BDwKUwAnmEIAAB8wXQ3NgR8ChOAZxgCAABfMN2NDQEfxATgsYYAAMB3me7Ahia9UsArC29aMwF4oKEv9EoBAPDWwpuuZPoRG5r0SgGvLLzpIhOARxm6pFcKAIB3F950PdPtbGjSKwW8uPCmNROAhxi6pFcKAIB3F950E9PtbGjSKwW8uPCmi0wA7m/okl4pAADeWnjTD5huZEOTXing9YU3rZkA3NnQJb1SAAC8u/CmHzDdyIYmvVLAWwhvWjMBuJuhL/RKAQDw7sKbfsB0Ixua9EoBbyG8ac0E4G6GLumVAgDg3YU3/YzpRjY06ZUC3kV405oJwB0MfaFXCgCADxDe9AOmG9nQpFcKeBfhTWsmAHcwdEmvFAAAnyG86QdMN7KhSa8U8EbCm9ZMAH5k6JJeKQAAPkl401qvDG9aMN3Ihia9UsAbCW9aMwG43dAXeqUAAPg84U1/6ZWahTctmG5kQ5NeKeC9hDetmQDcaOiSXikAADALb1ow3ciGJr1SwHsJb1ozAbjF0Bd6pQAAwCy8acF0Ixua9EoBbye8ac0E4GpDl/RKAQCAfwlvWjDdyIYmvVLA2wlvWjMBuM7QJb1SAADgT8KbFkw3sqFJrxTwjsKb1kwArjB0Sa8UAAD4k/CmBdONbGjSKwW8o/CmNROA7xq6pFcKAACshTctmG5hQ5NeKeBNhTetmQB8begLvVIAAGAtvGnBdAsbmvRKAW8qvGnNBOBrQ5f0SgEAgIvCmxZMt7ChSa8U8L7Cm9ZMAC4ZuqRXCgAAfCW8acF0Cxua9EoB7yu8ac0E4JKhS3qlAADAV8KbFky3sKFJrxTw1sKb1kwA/mzokl4pAADwDeFNC6Zb2NCkVwp4a+FNayYAfzD0hV4pAADwDeFNC6Zb2NCkVwp4d+FNayYA/2vokl4pAADwPeFNC6Zb2NCkVwp4d+FNayYAk6FLeqUAAMC3hTctmG5hQ5NeKeADhDetmQD8v6FLeqUAAMC3hTctmG5hQ5NeKeADhDetmQD819AlvVIAAOAa4U0LplvY0KRXCvgM4U1rJgAa+kKvFAAAuEZ404LpFjY06ZUCPkN405oJgIYu6ZUCAADXCG9aM93Chia9UsDHCG9aMwEfbegLvVIAAOAa4U0LphvZ0KRXCvgY4U1rJuCjDV3SKwUAAK4R3rRmupENTXqlgE8S3rRmAj7U0CW9UgAA4BrhTReZbmRDk14p4JOEN62ZgE809IVeKQAAcI3wpjXT7Wxo0isFfJjwpjUT8HGGLumVAgAA1whvWjP9iA1NeqWADxPetGYCPsvQF3qlAADAt4U3XWT6ERua9EoBnye8ac0EfJChS3qlAADANcKb1kw/ZUOTXing84Q3rZmATzF0Sa8UAAC4RnjTmukObGjSKwV8pPCmNRPw/oa+0CsFAAC+LbzpItMd2NCkVwr4SOFNaybg/Q1d0isFAACuEd60ZroPG5r0SgGfKrxpzQS8s6Ev9EoBAIBvC29aM92NDU16pYBPFd60ZgLe2dAlvVIAAODbwpsuMt2NDU16pYAPFt60ZgLe09AlvVIAAOAa4U1rpnuyoUmvFPDBwpvWTMC7GfparxQAAPi28KY1053Z0KRXCvhs4U1rJuB9DH2tVwoAAHxbeNNFpjuzoUmvFPDZwpvWTMA7GPquXikAAPBt4U1rpvuzoUmvFPDxwpvWTMALG7pCrxQAAPi28KY100PY0KRXCvh44U0XmYCXNHSFXikAAPBt4U0XmR7Chia9UgCk8KY1E/Bihq7TKwUAAK4R3rRmehQbmvRKAZDCmy4yAa9h6Gq9UgAA4BrhTWumB7KhSa8UgL+EN62ZgBcwdLVeKQAAcI3wpotMD2RDk14pAH8Jb7rIBGzX0NV6pQAAwPXCm9ZMj2VDk14pAH8Lb7rIBGzO0NV6pQAAwE3Cm9ZMD2dDk14pAH8Lb/oeE7AJQ1frlQIAADcJb7rI9HA2NOmVAvAP4U3fZgJ+zdDVeqUAAMAPhDetmZ7Bhia9UgD+IbzpeibgeYau1isFAAB+JrxpzfQkNjTplQIwC2+6iQl4uKGr9UoBAICfCW+6yPQkNjTplQIwC2/6GRNwf0NX65UCAAD3EN60ZnoeG5r0SgH4k/CmnzEB9zF0tV4pAABwJ+FNa6ansqFJrxSAhfCmezABNxq6Ra8UAAC4k/Cmi0xPZUOTXikAF4U33YkJ+NrQ7XqlAADAXYU3rZmezYYmvVIAvie86R5MwP8a+qleKQAAcG/hTWumX2BDk14pANcIb7oTEz7a0N30SgEAgHsLb7rI9AtsaNIrBeAm4U33YMIHGbqzXikAAPAY4U1rpt9hQ5NeKQA/EN50Jya8p6GH6JUCAAAPE960Zvo1NjTplQJwD+FNd2LCyxt6rF4pAADwMOFNF5l+jQ1NeqUA3FV40z2Y8GKGnqFXCgAAPFh405rpN9nQpFcKwAOEN92JCZs29CS9UgAA4PHCm9ZMv8yGJr1SAB4pvOkeTNiQoefplQIAAM8S3nSR6ZfZ0KRXCsDjhTfdiQm/Y+h5eqUAAMBvCG9aM/0+G5r0SgF4ovCmezDhGYaep1cKAAD8qvCmNdMm2NCkVwrAbwhvugcT7mzoeXqlAADANoQ3XWTaBBua9EoB+D3hTXdiwu2GnqdXCgAAbE9405ppK2xo0isFYAPCm+7BhO8aep5eKQAAsGHhTWumDbGhSa8UgM0Ib7oTE/5g6Hl6pQAAwCsIb7rItCE2NOmVArA94U33YIKGnqpXCgAAvJTwpjXTttjQpFcKwFaFN92J6bMMPVWvFAAAeE3hTWumzbGhSa8UgM0Lb7oH0zsbeqpeKQAA8OLCmy4ybY4NTXqlALyO8KZ7ML2JoafqlQIAAG8kvGnNtEU2NOmVAvBqwpvuxPR6hp6qVwoAALyj8KY100bZ0KRXCsDLCm+6B9PWDT1VrxQAAHhr4U0XmTbKhia9UgBeXHjTnZg2ZOipeqUAAMDHCG9aM22XDU16pQC8i/CmezD9pqHn6ZUCAACfJ7xpzbRpNjTplQLwXsKb7sT0JEPP0ysFAAA+WHjTRaZNs6FJrxSANxXedCem+xt6nl4pAACAv4Q3rZm2zoYmvVIA3l140z2YfmroeXqlAAAAZuFNa6YXYEOTXikAnyG86U5MVxh6nl4pAACAhfCmi0wvwIYmvVIAPkx40z2Yloaep1cKAADgG8Kb1kyvwYYmvVIAPlJ4052Y/mPoeXqlAAAArhHetGZ6GTY06ZUC8NnCm15BrxQAAMBNwpsuMr0MG5r0SgHAX8KbtqdXCgAA4GfCm9ZMr8SGJr1SAPAP4U2/rVcKAADgTsKb1kwvxoYmvVIA8CfhTU/UKwUAAHBv4U0XmV6MDU16pQBgLbzpYXqlAAAAHim8ac30emxo0isFAN8Q3nQPvVIAAABPEd60ZnpJNjTplQKAbwtvul6vFAAAwHOFN11kekk2NOmVAoDrhTdd1CsFAADwe8Kb1kyvyoYmvVIA8APhTX/rlQIAANiA8KY10wuzoUmvFAAAAAC8kfCmi0wvzIYmvVIAAAAA8EbCm9ZMr82GJr1SAAAAAPAuwpvWTC/Phia9UgAAAADwFsKbLjK9PBua9EoBAAAAwFsIb1ozvQMbmvRKAQAAAMDrC29aM70JG5r0SgEAAADAiwtvusj0Jmxo0isFAAAAAC8uvGnN9D5saNIrBQAAAACvLLxpzfRWbGjSKwUAAAAALyu86SLTW7GhSa8UAAAAALys8KY107uxoUmvFAAAAAC8pvCmNdMbsqFJrxQAAAAAvKDwpotMb8iGJr1SAAAAAPCCwpvWTO/Jhia9UgAAAADwasKb1kxvy4YmvVIAAAAA8FLCmy4yvS0bmvRKAQAAAMBLCW9aM70zG5r0SgEAAADA6whvWjO9ORua9EoBAAAAwIsIb7rI9OZsaNIrBQAAAAAvIrxpzfT+bGjSKwUAAAAAryC8ac30EWxo0isFAAAAAJsX3nSR6SPY0KRXCgAAAAA2L7xpzfQpbGjSKwUAAAAA2xbetGb6IDY06ZUCAAAAgA0Lb7rI9EFsaNIrBQAAAAAbFt60ZvosNjTplQIAAACArQpvWjN9HBua9EoBAAAAwCaFN11k+jg2NOmVAgAAAIBNCm9aM30iG5r0SgEAAADA9oQ3rZk+lA1NeqUAAAAAYGPCmy4yfSgbmvRKAQAAAMDGhDetmT6XDU16pQAAAABgS8Kb1kwfzYYmvVIAAAAAsBnhTReZPpoNTXqlAAAAAGAzwpvWTJ/Ohia9UgAAAACwDeFNaybIhia9UgAAAACwAeFNF5kgG5r0SgEAAADABoQ3rZnwHzY06ZUCAAAAgN8W3rRmwn/Z0KRXCgAAAAB+VXjTRSb8lw1NeqUAAAAA4FeFN62Z8P9saNIrBQAAAAC/J7xpzYSJDU16pQAAAADgl4Q3XWTCxIYmvVIAAAAA8EvCm9ZM+F82NOmVAgAAAIDfEN60ZsIf2NCkVwoAAAAAni686SIT/sCGJr1SAAAAAPB04U1rJvyZDU16pQAAAADgucKb1kxYsqFJrxQAAAAAPFF400UmLNnQpFcKAAAAAJ4ovGnNhEtsaNIrBQAAAADPEt60ZsIXbGjSKwUAAAAATxHedJEJX7ChSa8UAAAAADxFeNOaCV+zoUmvFAAAAAA8XnjTmgnfYkOTXikAAAAAeLzwpjUTvsWGJr1SAAAAAPBg4U1rJnyXDU16pQAAAADgkcKb1ky4gg1NeqUAAAAA4JHCm9ZMuIINTXqlAAAAAOBhwpvWTLiODU16pQAAAADgMcKb1ky4mg1NeqUAAAAA4DHCm9ZMuJoNTXqlAAAAAOABwpvWTLiFDU16pQAAAADg3sKbLjLhFjY06ZUCAAAAgHsLb1oz4UY2NOmVAgAAAIC7Cm9aM+F2NjTplQIAAACA+wlvusiE29nQpFcKAAAAAO4nvGnNhB+xoUmvFAAAAADcSXjTmgk/ZUOTXikAAAAAuIfwpotM+CkbmvRKAQAAAMA9hDetmXAHNjTplQIAAACAHwtvWjPhPmxo0isFAAAAAD8T3nSRCfdhQ5NeKQAAAAD4mfCmNRPuxoYmvVIAAAAA8APhTWsm3JMNTXqlAAAAAOBW4U0XmXBPNjTplQIAAACAW4U3rZlwZzY06ZUCAAAAgJuEN62ZcH82NOmVAgAAAIDrhTddZML92dCkVwoAAAAArhfetGbCQ9jQpFcKAAAAAK4U3rRmwqPY0KRXCgAAAACuEd50kQmPYkOTXikAAAAAuEZ405oJD2RDk14pAAAAAPi28KY1Ex7Lhia9UgAAAADwPeFNF5nwWDY06ZUCAAAAgO8Jb1oz4eFsaNIrBQAAAADfEN60ZsIz2NCkVwoAAAAAvhLedJEJz2BDk14pAAAAAPhKeNOaCU9iQ5NeKQAAAAC4KLxpzYTnsaFJrxQAAAAArIU3XWTC89jQpFcKAAAAANbCm9ZMeCobmvRKAQAAAMBCeNOaCc9mQ5NeKQAAAAD4k/Cmi0x4Nhua9EoBAAAAwJ+EN62Z8AtsaNIrBQAAAAD/Et60ZsLvsKFJrxQAAAAAzMKbLjLhd9jQpFcKAAAAAGbhTWsm/BobmvRKAQAAAMA/hDetmfCbbGjSKwUAAAAAfwtvusiE32RDk14pAAAAAPhbeNOaCb/Mhia9UgAAAADwl/CmNRN+nw1NeqUAAAAAQApvusiE32dDk14pAAAAAJDCm9ZM2AQbmvRKAQAAAPh44U1rJmyFDU16pQAAAAB8tvCmi0zYChua9EoBAAAA+GzhTWsmbIgNTXqlAAAAAHyw8KY1E7bFhia9UgAAAAA+VXjTRSZsiw1NeqUAAAAAfKrwpjUTNseGJr1SAAAAAD5SeNOaCVtkQ5NeKQAAAACfJ7zpIhO2yIYmvVIAAAAAPk9405oJG2VDk14pAAAAAB8mvGnNhO2yoUmvFAAAAIBPEt50kQnbZUOTXikAAAAAnyS8ac2ETbOhSa8UAAAAgI8R3rRmwtbZ0KRXCgAAAMBnCG+6yISts6FJrxQAAACAzxDetGbCC7ChSa8UAAAAgA8Q3rRmwmuwoUmvFAAAAIB3F950kQmvwYYmvVIAAAAA3l1405oJL8OGJr1SAAAAAN5aeNOaCa/Ehia9UgAAAADeV3jTRSa8Ehua9EoBAAAAeF/hTWsmvBgbmvRKAQAAAHhT4U1rJrweG5r0SgEAAAB4R+FNF5nwemxo0isFAAAA4B2FN62Z8JJsaNIrBQAAAODthDetmfCqbGjSKwUAAADgvYQ3XWTCq7KhSa8UAAAAgPcS3rRmwguzoUmvFAAAAIA3Et60ZsJrs6FJrxQAAACAdxHedJEJr82GJr1SAAAAAN5FeNOaCS/Phia9UgAAAADeQnjTmgnvwIYmvVIAAAAAXl9400UmvAMbmvRKAQAAAHh94U1rJrwJG5r0SgEAAAB4ceFNaya8Dxua9EoBAAAAeGXhTReZ8D5saNIrBQAAAOCVhTetmfBWbGjSKwUAAADgZYU3rZnwbmxo0isFAAAA4DWFN11kwruxoUmvFAAAAIDXFN60ZsIbsqFJrxQAAACAFxTetGbCe7KhSa8UAAAAgFcT3nSRCe/Jhia9UgAAAABeTXjTmglvy4YmvVIAAAAAXkp405oJ78yGJr1SAAAAAF5HeNNFJrwzG5r0SgEAAAB4HeFNaya8ORua9EoBAAAAeBHhTWsmvD8bmvRKAQAAAHgF4U0XmfD+bGjSKwUAAADgFYQ3rZnwEWxo0isFAAAAYPPCm9ZM+BQ2NOmVAgAAALBt4U0XmfApbGjSKwUAAABg28Kb1kz4IDY06ZUCAAAAsGHhTWsmfBYbmvRKAQAAANiq8KaLTPgsNjTplQIAAACwVeFNayZ8HBua9EoBAAAA2KTwpjUTPpENTXqlAAAAAGxPeNNFJnwiG5r0SgEAAADYnvCmNRM+lA1NeqUAAAAAbEx405oJn8uGJr1SAAAAALYkvOkiEz6XDU16pQAAAABsSXjTmgkfzYYmvVIAAAAANiO8ac2ET2dDk14pAAAAANsQ3nSRCZ/Ohia9UgAAAAC2IbxpzQTIhia9UgAAAAA2ILxpzQT8hw1NeqUAAAAA/LbwpotMwH/Y0KRXCgAAAMBvC29aMwH/ZUOTXikAAAAAvyq8ac0E/D8bmvRKAQAAAPg94U0XmYD/Z0OTXikAAAAAvye8ac0ETGxo0isFAAAA4JeEN62ZgP9lQ5NeKQAAAAC/IbzpIhPwv2xo0isFAAAA4DeEN62ZgD+woUmvFAAAAICnC29aMwF/ZkOTXikAAAAAzxXedJEJ+DMbmvRKAQAAAHiu8KY1E7BkQ5NeKQAAAABPFN60ZgIusaFJrxQAAACAZwlvusgEXGJDk14pAAAAAM8S3rRmAr5gQ5NeKQAAAABPEd60ZgK+ZkOTXikAAAAADxbe9BUT8DUbmvRKAQAAAHiM8KbvMQHfYkOTXikAAAAAdxXedA0T8F02NOmVAgAAAHAP4U03MQHfZUOTXikAAAAAPxDe9AMm4Ao2NOmVAgAAAHCT8KafMQHXsaFJrxQAAACAa4Q33YMJuJoNTXqlAAAAAHxbeNM9mIBb2NCkVwoAAADA94Q3/YwJ+BEbmvRKAQAAAPie8KZbmYA7sKFJrxQAAACAbwhvup4JuCcbmvRKAQAAAPie8KbvMQEPYUOTXikAAAAA3xPedJEJeCwbmvRKAQAAAPie8KavmIAHsqFJrxQAAACAbwtv+ooJeBQbmvRKAQAAALhGeNNXTMBD2NCkVwoAAADAlcKbvmIC7s+GJr1SAAAAAK4X3nSRCbg/G5r0SgEAAAC4XnjTRSbg/mxo0isFAAAA4CbhTReZgDuzoUmvFAAAAIBbhTctmID7s6FJrxQAAACAm4Q3XWQC7syGJr1SAAAAAG4S3rRmAu7Phia9UgAAAABuEt60ZgLuz4YmvVIAAAAArhfetGYCHsKGJr1SAAAAAK4X3rRmAh7Chia9UgAAAACuFN60ZgIexYYmvVIAAAAArhTetGYCHsWGJr1SAAAAAK4R3rRmAh7Ihia9UgAAAACuEd60ZgIeyIYmvVIAAAAAvi28ac0EPJYNTXqlAAAAAHxbeNOaCXgsG5r0SgEAAAD4nvCmNRPwcDY06ZUCAAAA8D3hTWsm4OFsaNIrBQAAAOAbwpvWTMAz2NCkVwoAAADAN4Q3rZmAZ7ChSa8UAAAAgK+EN62ZgCexoUmvFAAAAICvhDetmYAnsaFJrxQAAACAi8Kb1kzA89jQpFcKAAAAwEXhTWsm4HlsaNIrBQAAAGAtvOkiE/A8NjTplQIAAACwFt60ZgKeyoYmvVIAAAAAFsKbLjIBT2VDk14pAAAAAAvhTWsm4NlsaNIrBQAA8GHCm76tVwqfKrzpIhPwbDY06ZUCAAB4EeFNv6dXCh8mvGnNBPwCG5r0SgEAADxSeNN76ZXCZwhvWjMBv8CGJr1SAAAA/xLehK/0SuF9hTetmYDfYUOTXikAAPAuwpvwG3ql8HbCm9ZMwO+woUmvFAAA+FXhTXgjvVJ4feFNaybg19jQpFcKAADcJLwJWOuVwssKb1ozAb/Ghia9UgAAfJLwJuC5eqXwUsKb1kzAb7KhSa8UAACbF94EvL5eKbyC8KY1E/CbbGjSKwUAwGOENwH4k14pbFV405oJ+GU2NOmVAgBgFt4E4MF6pbBJ4U1rJuCX2dCkVwoA8BbCmwC8lF4pbEx405oJ+H02NOmVAgD8nvAmAJ+qVwobE960ZgJ+nw1NeqUAAA8Q3gQAX+mVwmaEN62ZgE2woUmvFADgrsKbAOB7eqWwGeFNayZgE2xo0isFALif8CYA+LZeKWxDeNOaCdgKG5r0SgEA7ie8CcDa8XTWhznsd1rrlcI2hDetmYCtsKFJrxQA4E7Cm/AYx9NZwMs67Hda6JXCBoQ3XWQCtsKGJr1SAIA7CW/CPxxPZwH4y2G/00KvFH5beNOaCdgQG5r0SgEA7iS86fUdT2cBuLfDfqeFXin8qvCmi0zAhtjQpFcKAHAn4U2/53g6C8BWHfY7LfRK4VeFN62ZgG2xoUmvFADgTsKbrnQ8nQXgAxz2Oy30SuH3hDddZAK2xYYmvVIAgDsJb1o4ns4C8MEO+50WeqXwe8Kb1kzA5tjQpFcKAHAP4U0Lx9NZAD7bYb/TQq8Ufk9405oJ2BwbmvRKAQDuIbxp4Xg6C8BnO+x3WuiVwi8Jb1ozAVtkQ5NeKQDAPYQ3LRxPZwH4bIf9Tgu9Uvgl4U1rJmCLbGjSKwUAuIfwpoXj6SwAH++w3+lPeqXwG8Kb1kzARtnQpFcKAHAP4U0Lx9NZAD7eYb/TQq8Uni68ac0EbJQNTXqlAAD3EN60cDydBeDjHfY7LfRK4bnCm9ZMwHbZ0KRXCgBwD+FNC8fTWQA+3mG/00KvFJ4rvGnNBGyXDU16pQAA9xDetHA8nQXg4x32Oy30SuGJwpvWTMCm2dCkVwoAcA/hTQvH01kAPt5hv9NCrxSeKLxpzQRsmg1NeqUAAPcQ3rRwPJ0F4OMd9jst9ErhWcKb1kzA1tnQpFcKAHAP4U0Lx9NZAD7eYb/TQq8UniW8ac0EbJ0NTXqlAAD3EN70J8fTWQAgHfY7LfRK4SnCm9ZMwAuwoUmvFADgx8KbFo6nswDgL4f9Tgu9Uni88KY1E/ACbGjSKwUA+LHwpoXj6SwA+Mthv9NCrxQeLLxpzQS8Bhua9EoBAH4svGnheDoLAP5y2O+00CuFBwtvWjMBr8GGJr1SAIAfC29aOJ7OAoC/HPY7LfRK4ZHCm9ZMwMuwoUmvFADgx8KbFo6nswDgL4f9Tgu9Unik8KY1E/AybGjSKwUA+LHwpoXj6SwA+Mthv9NCrxQeJrzpIhPwMmxo0isFAPix8KaF4+ksAPjLYb/TQq8UHim8acEEvBIbmvRKAQB+LLxp4Xg6CwD+ctjvtNArhYcJb1ozAa/Ehia9UgCAHwtvWjiezgKAvx32O/1JrxQeJrxpwQS8GBua9EoBAH4svGnheDoLAP522O+00CuFxwhvWjABL8aGJr1SAIAfC29aOJ7OAoC/HfY7LfRK4THCm9ZMwCuxoUmvFADgZ8KbFo6nswDgHw77nRZ6pfAw4U0LJuCV2NCkVwoA8DPhTQvH01kA8A+H/U4LvVJ4mPCmBRPwSmxo0isFAPiZ8KaF4+ksAPiHw36nhV4pPEx404IJeCU2NOmVAgD8THjTwvF0FgD8w2G/00KvFB4mvGnBBLwSG5r0SgEAfia8aeF4OgsA/uGw32mhVwoPE960YAJeiQ1NeqUAAD8T3rRwPJ0FAP9w2O+00CuFhwlvWjABr8SGJr1SAICfCW9aOJ7OAoDZYb/Tn/RK4WHCm9ZMwMuwoUmvFADgZ8KbFo6nswBgdtjvtNArhYcJb1owAS/Dhia9UgCAnwlvWjiezgKA2WG/00KvFB4mvGnBBLwMG5r0SgEAfia8aeF4OgsAZof9Tgu9UniY8KYFE/AybGjSKwUA+JnwpoXj6SwAmB32Oy30SuFhwpsWTMDLsKFJrxQA4GfCm/7keDoLAP7lsN9poVcKDxPetGACXoYNTXqlAAA/EN60cDydBQD/ctjvtNArhYcJb1ozAa/Bhia9UgCAHwhvWjiezgKAfznsd1rolcIjhTctmIDXYEOTXikAwA+ENy0cT2cBwL8c9jst9ErhkcKbFkzAa7ChSa8UAOAHwpsWjqezAOBPDvudFnql8DDhTQsm4DXY0KRXCgDwA+FNC8fTWQDwJ4f9Tgu9UniY8KYFE/AabGjSKwUA+IHwpoXj6SwA+JPDfqeFXik8THjTggl4DTY06ZUCAPLXdq8AABnJSURBVPxAeNPC8XQWAPzJYb/TQq8UHia8acEEvAYbmvRKAQB+ILxp4Xg6CwD+5LDfaaFXCg8T3rRmAl6ADU16pQAAPxDetHA8nQUAf3LY77TQK4VHCm9aMAEvwIYmvVIAgB8Ib1o4ns4CgD857Hda6JXCI4U3LZiAF2BDk14pAMAPhDctHE9nAcCfHPY7LfRK4ZHCmxZMwAuwoUmvFADgVuFNC8fTWQCwdtjv9Ce9Unik8KYFE/ACbGjSKwUAuFV408LxdBYArB32Oy30SuFhwpsWTMALsKFJrxQA4FbhTQvH01kAsHbY77TQK4WHCW9aMwFbZ0OTXikAwK3CmxaOp7MAYO2w32mhVwqPFN60YAK2zoYmvVIAgFuFNy0cT2cBwNphv9NCrxQeKbxpwQRsnQ1NeqUAALcKb1o4ns4CgLXDfqeFXik8UnjTggnYOhua9EoBAG4V3rRwPJ0FAGuH/U4LvVJ4pPCmBROwdTY06ZUCANwqvGnheDoLANYO+50WeqXwSOFNCyZg62xo0isFALhVeNPC8XQWAKwd9jst9ErhkcKbFkzA1tnQpFcKAHCr8KaF4+ksALjosN9poVcKDxPetGYCNs2GJr1SAIBbhTctHE9nAcBFh/1OC71SeKTwpgUTsGk2NOmVAgDcJLxp4Xg6CwC+ctjvtNArhUcKb1owAZtmQ5NeKQDATcKbFo6nswDgK4f9Tgu9Unik8KYFE7BpNjTplQIA3CS8aeF4OgsAvnLY77TQK4VHCm9aMAGbZkOTXikAwE3CmxaOp7MA4CuH/U4LvVJ4pPCmBROwaTY06ZUCANwkvGnheDoLAL5y2O+00CuFRwpvWjMB22VDk14pAMBNwpsWjqezAOArh/1OC71SeLDwpgUTsF02NOmVAgDcJLxp4Xg6CwC+ctjvtNArhQcLb1owAdtlQ5NeKQDATcKbFo6nswDgGw77nRZ6pfBI4U0LJmC7bGjSKwUAuEl408LxdBYAfMNhv9NCrxQeKbxpwQRslw1NeqUAADcJb1o4ns4CgG847Hda6JXCI4U3LZiA7bKhSa8UAOAm4U0Lx9NZAPANh/1OC71SeKTwpgUTsF02NOmVAgDcJLxp4Xg6CwC+4bDfaaFXCo8U3rRmAjbKhia9UgCA64U3LRxPZwHA9xz2Oy30SuHBwpsWTMBG2dCkVwoAcL3wpoXj6SwA+J7DfqeFXik8WHjTggnYKBua9EoBAK4X3rRwPJ0FAN9z2O+00CuFBwtvWjABG2VDk14pAMD1wpsWjqezAODbDvud/qRXCg8W3rRgAjbKhia9UgCA64U3LRxPZwHAtx32Oy30SuGRwpsWTMBG2dCkVwoAcL3wpoXj6SwA+LbDfqeFXik8UnjTmgnYIhua9EoBAK4X3rRwPJ0FAN922O+00CuFBwtvWjABW2RDk14pAMD1wpsWjqezAODbDvudFnql8GDhTQsmYItsaNIrBQC4XnjTwvF0FgB822G/00KvFB4svGnBBGyRDU16pQAA1wtvWjiezgKAbzvsd1rolcKDhTctmIAtsqFJrxQA4HrhTQvH01kA8G2H/U4LvVJ4sPCmBROwRTY06ZUCAFwpvGnheDoLAK5x2O+00CuFBwtvWjABW2RDk14pAMCVwpsWjqezAOBKh/1OC71SeKTwpjUTsDk2NOmVAgBcKbxp4Xg6CwCudNjvtNArhQcLb1owAZtjQ5NeKQDAlcKbFo6nswDgSof9Tgu9Uniw8KYFE7A5NjTplQIAXCm8aeF4OgsArnTY77TQK4UHC29aMAGbY0OTXikAwJXCmxaOp7MA4EqH/U4LvVJ4sPCmBROwOTY06ZUCAFwpvGnheDoLAK502O+00CuFBwtvWjABm2NDk14pAMCVwpsWjqezAOBKh/1OC71SeLDwpjUTsC02NOmVAgBcKbxp4Xg6CwCudNjvtNArhccLb1owAdtiQ5P/aw/uqiTngXSNvgHEF6JgHgJgIgIRRAwgeJiCLgxEs+Zbp9e0TldkZ3XlX1U+e0d3AQA+qZamxH6cAoDP29ZFH4nuwv3V0pQwAa/FhibRXQCAT6qlKbEfpwDg87Z1USK6C3dWS1PCBLwWG5pEdwEAPqmWpo/sxykA+CfbuigR3YU7q6UpYQJeiw1NorsAAJ9RS1NiP04BwD/Z1kWJ6C7cWS1NCRPwWmxoEt0FAPiMWpoS+3EKAP7Jti5KRHfhzmppSpiA12JDk+guAMBn1NKU2I9TAPBPtnVRIroLd1ZLU84EvBAbmkR3AQA+o5amxH6cAoB/sq2LEtFduL9amhIm4IXY0CS6CwDwGbU0JfbjFAD8k21dlIjuwv3V0pQwAS/EhibRXQCAz6ilKbEfpwDgn2zrokR0F+6vlqaECXghNjSJ7gIAfEYtTYn9OAUA/2pbFyWiu3BntTQlTMALsaFJdBcA4DNqaUrsxykA+FfbuigR3YU7q6UpYQJeiA1NorsAAJ9RS1NiP04BwL/a1kWJ6C7cWS1NORPwKmxoEt0FAPiMWpoS+3EKAP7Vti5KRHfh/mppSpiAV2FDk+guAMBn1NKU2I9TAPCvtnVRIroL91dLU8IEvAobmkR3AQCuVktTYj9OAcAXbOuiRHQX7q+WpoQJeBU2NInuAgBcrZamxH6cAoAv2NZFiegu3F8tTQkT8CpsaBLdBQC4Wi1Nif04BQBfsK2LEtFduL9amhIm4FXY0CS6CwBwtVqaEvtxCgC+YFsXJaK7cH+1NCVMwKuwoUl0FwDgarU0JfbjFAB8zbYuSkR34c5qacqZgJdgQ5PoLgDA1WppSuzHKQD4mm1dlIjuwv3V0pQwAS/BhibRXQCAq9XSlNiPUwDwNdu6KBHdhfurpSlhAl6CDU2iuwAAV6ulKbEfpwDga7Z1USK6C/dXS1POBDyfDU2iuwAAV6ulKbEfpwDga7Z1USK6C/dXS1POBDyfDU2iuwAAV6ulKbEfpwDga7Z1USK6Cw9RS1POBDyZDU2iuwAAV6ulKbEfpwDga7Z1USK6C49SS1POBDyTDU2iuwAA16mlKbEfpwDgy7Z1USK6C49SS9NFJuBpbGgS3QUAuE4tTYn9OAUAt7Ctiz4S3YUHqqXpIhPwHDY0ie4CAFynlqbEfpwCgFvY1kWJ6C48UC1NORPwHDY0ie4CAFynlqbEfpwCgFvY1kWJ6C48Vi1NORPwBDY0ie4CAFynlqbEfpwCgFvY1kWJ6C48Vi1NF5mAR7OhSXQXAOA6tTQl9uMUANzCti5KRHfh4WppusgEPJQNTaK7AADXqaUpsR+nAOAWtnVRIroLz1BLU84EPJQNTaK7AADXqaUpsR+nAOAWtnVRIroLT1JLU84EPI4NTaK7AADXqaUpsR+nAOAWtnVRIroLT1JL00Um4EFsaBLdBQC4Ti1Nif04BQC3sK2LEtFdeJ5ami4yAY9gQ5PoLgDAdWppSuzHKQC4kW1dlIjuwvPU0pQzAY9gQ5PoLgDAdWppSuzHKQC4kW1dlIjuwlPV0pQzAXdnQ5PoLgDAFWppSuzHKQC4nW1dlIjuwlPV0nSRCbgvG5pEdwEArlBLU2I/TgHA7WzrokR0F56tlqaLTMAd2dAkugsAcIVamhL7cQoAbmdbFyWiu/ACamnKmYA7sqFJdBcA4Aq1NCX24xQA3M62LkpEd+E11NKUMwH3YkOT6C4AwBVqaUrsxykAuJ1tXZSI7sLLqKUpZwLuwoYm0V0AgCvU0pTYj1MAcDvbuigR3YWXUUvTRSbg9mxoEt0FALhCLU2J/TgFALezrYsS0V14JbU05UzA7dnQJLoLAHCFWpoS+3EKAG5qWxclorvwSmppypmAG7OhSXQXAOAKtTQl9uMUANzUti5KRHfhxdTSlDMBt2RDk+guAMAVamlK7McpALipbV2UiO7Ci6ml6SITcDM2NInuAgBcoZamxH6cAoCb2tZFieguvJ5ami4yAbdhQ5PoLgDA39TSlNiPUwBwa9u6KBHdhZdUS1POBNyGDU2iuwAAf1NLU2I/TgHArW3rokR0F15VLU05E3ADNjSJ7gIA/E0tTYn9OAUAt7atixLRXXhVtTRdZAK+yoYm0V0AgL+ppSmxH6cA4Na2dVEiugsvrJami0zAl9jQJLoLAPA3tTQl9uMUANzBti76SHQXXlstTTkT8CU2NInuAgD8TS1Nif04BQB3sK2LEtFdeG21NOVMwL+zoUl0FwDgb2ppSuzHKQC4g21dlIjuwmurpekiE/CPbGgS3QUA+JtamhL7cQoA7mBbFyWiu/Dyamm6yAT8CxuaRHcBAP6mlqbEfpwCgDvY1kWJ6C58B7U05UzAv7ChSXQXAOBvamlK7McpALiDbV2UiO7CN1FLU84EfJoNTaK7AAB/U0tTYj9OAcAdbOuiRHQXvolami4yAZ9jQ5PoLgDA39TS9JH9OAUA97GtixLRXfg+amm6yAR8gg1NorsAABfV0pTYj1MAcB/buigR3YVvpZamnAn4BBuaRHcBAC6qpSmxH6cA4G62dVEiugvfSi1NORNwLRuaRHcBAC6qpSmxH6cA4G62dVEiugvfTS1NORNwFRuaRHcBAC6qpSmxH6cA4G62dVEiugvfTS1NF5mAv7OhSXQXAOCiWpoS+3EKAO5mWxclorvwDdXSlDMBf2dDk+guAMBFtTQl9uMUANzNti5KRHfhe6qlKWcC/sKGJtFdAICLamlK7McpALibbV2UiO7Ct1VLU84EXGJDk+guAMBFtTQl9uMUANzNti5KRHfh26ql6SITkLKhSXQXAOCiWpoS+3EKAO5mWxclorvwndXSlDMBKRuaRHcBAC6qpSmxH6cA4J62ddFHorvwzdXSlDMBH7OhSXQXAOCiWpoS+3EKAO5pWxclorvwzdXSlDMBH7ChSXQXACBXS1NiP04BwJ1t66JEdBe+uVqaLjIB/z8bmkR3AQBytTQl9uMUANzZti5KRHfh+6ul6SITMLGhSXQXACBXS1NiP04BwJ1t66JEdBd+hFqaciZgYkOT6C4AQK6WpsR+nAKAO9vWRYnoLvwUtTTlTMD/saFJdBcAIFdLU2I/TgHAnW3rokR0F36KWpouMgH/jw1NorsAALlamhL7cQoA7mxbFyWiu/CD1NJ0kQn4XzY0ie4CAORqaUrsxykAuLNtXZSI7sLPUktTzgT8LxuaRHcBAHK1NCX24xQA3N+2LkpEd+FnqaUpZwJkQ5PoLgBArpamxH6cAoD729ZFiegu/Cy1NF1kwruzoUl0FwAgV0tTYj9OAcD9beuiRHQXfpxami4y4a3Z0CS6CwCQq6UpsR+nAOD+tnVRIroLP1EtTTkT3poNTaK7AAC5Wpo+sh+nAOAhtnVRIroLP1QtTTkT3pcNTaK7AACJWpoS+3EKAB5iWxclorvwc9XSlDPhTdnQJLoLAJCopSmxH6cA4CG2dVEiugs/Vy1NF5nwjmxoEt0FAEjU0pTYj1MA8BDbuigR3YUfrZamnAnvyIYm0V0AgEQtTYn9OAUAD7GtixLRXfjpamnKmfB2bGgS3QUASNTSlNiPUwDwKNu6KBHdhZ+ulqacCe/FhibRXQCARC1Nif04BQCPsq2LEtFd+OlqabrIhDdiQ5PoLgBAopamxH6cAoBH2dZFieguvIFamnImvBEbmkR3AQAStTQl9uMUADzKti5KRHfhPdTSlDPhXdjQJLoLAJCopSmxH6cA4FG2dVEiugtvo5amnAlvwYYm0V0AgEQtTYn9OAUAj7KtixLRXXgbtTRdZMLPZ0OT6C4AQKKWpsR+nAKAR9nWRYnoLryTWpouMuGHs6FJdBcA4CO1NCX24xQAPNC2LkpEd+HN1NKUM+GHs6FJdBcA4CO1NCX24xQAPNa2LvpIdBfeTy1NORN+MhuaRHcBAD5SS1NiP04BwGNt66JEdBfeTC1NF5nwY9nQJLoLAPCRWpoS+3EKAB5rWxclorvwfmppusiEn8mGJtFdAICP1NKU2I9TAPBY27ooEd2Ft1RLU86En8mGJtFdAICP1NKU2I9TAPBY27ooEd2Fd1VLU86EH8iGJtFdAICP1NKU2I9TAPBY27ooEd2Fd1VL00Um/DQ2NInuAgB8pJamxH6cAoDH2tZFieguvLFami4y4UexoUl0FwDgI7U0JfbjFAA81rYuSkR34b3V0pQz4UexoUl0FwDgI7U0JfbjFAA81rYuSkR34e3V0pQz4eewoUl0FwDgI7U0JfbjFAA83LYuSkR34b3V0nSRCT+EDU2iuwAAf6ilKbEfpwDgGbZ1USK6C2+vlqaLTPgJbGgS3QUA+EMtTYn9OAUAz7CtixLRXYBUS1POhJ/AhibRXQCAP9TSlNiPUwDwDNu6KBHdBfynlqacCd+eDU2iuwAAf6ilKbEfpwDgGbZ1USK6C/illqacCd+bDU2iuwAAf6ilKbEfpwDgGbZ1USK6C/illqaLTPjGbGgS3QUA+EMtTYn9OAUAz7CtixLRXcBvamnKmfCN2dAkugsA8IdamhL7cQoAnmFbFyWiu4BZLU05E74rG5pEdwEA/lBLU2I/TgHAk2zroo9EdwF/qKUpZ8K3ZEOT6C4AwB9qaUrsxykAeJJtXZSI7gJmtTRdZML3Y0OT6C4AwB9qaUrsxykAeJJtXZSI7gL+UEvTRSZ8MzY0ie4CAPyhlqbEfpwCgCfZ1kWJ6C7gI7U05Uz4ZmxoEt0FAPhDLU0f2Y9TAPA827ooEd0FJGppypnwndjQJLoLADCrpSmxH6cA4Hm2dVEiugtI1NJ0kQnfhg1NorsAALNamhL7cQoAnmdbFyWiu4BcLU0XmfA92NAkugsAMKulKbEfpwDgebZ1USK6C7iolqacCd+DDU2iuwAAs1qaEvtxCgCeZ1sXJaK7gL+ppSlnwjdgQ5PoLgDArJamxH6cAoCn2tZFH4nuAv6mlqaLTHh1NjSJ7gIAzGppSuzHKQB4qm1dlIjuAv6mlqaLTHhpNjSJ7gIAzGppSuzHKQB4qm1dlIjuAq5QS1POhJdmQ5PoLgDArJamxH6cAoCn2tZFiegu4Dq1NOVMeF02NInuAgDMamlK7McpAHiqbV2UiO4CrlNL00UmvCgbmkR3AQBmtTQl9uMUADzVti5KRHcBV6ul6SITXpENTaK7AACzWpoS+3EKAJ5qWxcloruAz6il6SITXo4NTaK7AAC/qaUpsR+nAODZtnVRIroL+KRami4y4bXY0CS6CwDwm1qaEvtxCgCebVsXJaK7gM+rpekiE16IDU2iuwAAv6mlKbEfpwDgBWzrokR0F/BJtTRdwYSXYEOT6C4AwG9qaUrsxykAeAHbuigR3QV8Xi1NVzDh+WxoEt0FAPhNLU2J/TgFAC9gWxcloruAf1JL03VMeCYbmkR3AQB+U0tTYj9OAcAL2NZFiegu4F/V0nQdE57GhibRXQCA39TSlNiPUwDwArZ1USK6C/iCWpquZsIT2NAkugsA8JtamhL7cQoAXsC2LkpEdwFfU0vT1Ux4NBuaRHcBAH5TS1NiP04BwAvY1kWJ6C7gFmppuo4JD2VDk+guAMBvamlK7McpAHgB27ooEd0F3EgtTVcz4UFsaBLdBQD4TS1Nif04BQCvYVsXfSS6C7ipWpquY8Ij2NAkugsA8Jtamj6yH6cA4GVs66JEdBdwU7U0Xc2E+7KhSXQXAOCXWpoS+3EKAF7Gti5KRHcBt1ZL09VMuCMbmkR3AQB+qaUpsR+nAOBlbOuiRHQXcB+1NF3NhLuwoUl0FwDgl1qaEvtxCgBexrYuSkR3AXdTS9PVTLg9G5pEdwEAfqmlKbEfpwDgZWzrokR0F3BntTRdx4Qbs6FJdBcA4JdamhL7cQoAXsa2LkpEdwH3V0vT1Uy4GRuaRHcBAH6ppSmxH6cA4GVs66JEdBfwKLU0XceE27ChSXQXAOCXWpoS+3EKAF7Gti5KRHcBD1RL09VM+CobmkR3AQB+qaUpsR+nAOBvtnXRC4juAh6olqarmfAlNjSJ7gIA/FJLU2I/TgH4vG1dhIeL7gIerpamq5nwj2xoEt0FAPillqbEfpwCbmFbFwF3Ft0FPEMtTVcz4V/Y0CS6CwDwSy1Nif04hTvY1kUAbi26C3ieWpquY8Kn2dAkugsA8J9amhL7cepRtnURAHxNdBfwVLU0Xc2ET7ChSXQXAOA/tTQBwPcX3QW8hlqarmPCtWxoEt0FAPhPLU0A8P1FdwEvo5amq5nwdzY0ie4CAPynliYA+Oaiu4AXU0vT1Uz4CxuaRHcBAP5TSxMAfFvRXcALq6XpaiakbGgS3QUA+E8tTQDwNdFdABK1NF3NhI/Z0CS6CwDwSy1NAG4qugsAflNL03VM+IANTaK7AAC/1NIE3Fl0FwC8t1qarmbCxIYm0V0AgN/U0oQHiu4CALylWpquY8L/saFJdBcA4A+1ND1JdBcAAO+hlqarmfC/bGgS3QUAAAAAT1JL09VMkA1NorsAAAAA4Klqabqa6a3Z0CS6CwAAAACerZamq5nelw1NorsAAAAA4DXU0nQd05uyoUl0FwAAAAC8jFqarmZ6OzY0ie4CAAAAgBdTS9N1TO/FhibRXQAAAADwemppuprpXdjQJLoLAAAAAF5SLU1XM70FG5pEdwEAAADAC6ul6WqmH86GJtFdAAAAAPDaamm6mukns6FJdBcAAAAAfAe1NF3H9GPZ0CS6CwAAAAC+iVqarmb6gWxoEt0FAAAAAN9KLU3XMf00NjSJ7gIAAACA76aWpquZfg4bAgAAAIC3Y/ohbAgAAAAA3pHpJ7AhAAAAAHhTpm/PhgAAAADgTZm+PRsCAAAAgPdl+t7+B1IFNmzJ5y/UAAAAAElFTkSuQmCC;" parent="1" vertex="1">
                    <mxGeometry x="-60" y="290" width="380.65" height="200" as="geometry"/>
                </mxCell>
                <mxCell id="8" value="(a)" style="text;html=1;align=center;verticalAlign=middle;resizable=0;points=[];autosize=1;strokeColor=none;fillColor=none;fontFamily=Times New Roman;fontSize=34;" vertex="1" parent="1">
                    <mxGeometry x="105" y="498" width="50" height="50" as="geometry"/>
                </mxCell>
                <mxCell id="11" value="(b)" style="text;html=1;align=center;verticalAlign=middle;resizable=0;points=[];autosize=1;strokeColor=none;fillColor=none;fontFamily=Times New Roman;fontSize=34;" vertex="1" parent="1">
                    <mxGeometry x="543.3199999999999" y="498" width="60" height="50" as="geometry"/>
                </mxCell>
            </root>
        </mxGraphModel>
    </diagram>
</mxfile>